<svg width="384" height="195" viewBox="0 0 384 195" fill="none" xmlns="http://www.w3.org/2000/svg">
<path d="M367.3 11.7277V55.9269C367.3 56.0273 367.2 56.0273 367.2 55.9269C361 47.9911 350.1 43.3703 336.9 43.3703C311.7 43.3703 297.2 60.8491 295.7 90.5831C295.7 90.5831 295.6 93.7976 295.6 94.1994C295.4 120.418 289 132.271 275.8 132.271C266.4 132.271 257.3 129.257 258.2 116.902C258.3 115.596 259.4 90.1813 255.6 72.602C251.8 54.9223 237.7 42.9685 216.9 42.9685C195.9 42.9685 172 58.3377 174.8 101.332C174.8 104.747 176 112.08 170.9 121.623C167.3 128.353 160.3 132.773 144.5 132.171L108.4 132.572C84.4 132.572 78 111.879 77.6 102.738L78.1 102.236H140.5C143.1 102.236 146 101.834 147.9 100.227C150.9 97.6148 150.8 95.003 150.8 92.0899C150.8 66.7758 137.6 48.3929 116.2 44.1739C113.3 43.5712 110.3 43.2698 107.4 43.2698C95.2 43.2698 83.7 46.4843 75 55.4246C66.2 64.3649 61.2 78.0265 61.2 90.5831V95.9071C61.2 109.669 65.3 122.627 72.2 132.271L48.7 132.472C30.9 132.472 16.3 119.614 16.3 101.733V11.3259C16.3 6.80551 12.7 3.18921 8.2 3.18921C3.7 3.18921 0 6.90596 0 11.4263V104.144C0 128.755 19.8 148.645 44.3 148.645H107.9H123.4H148.7C168.5 148.645 178.5 140.709 183.5 132.371H183.6C192.1 143.723 204.6 148.444 216.8 148.444C233.6 148.444 241.1 141.01 245.7 134.28H245.8C251.3 144.526 261.9 148.645 274.1 148.645C288.3 148.645 298 144.727 303.9 132.472H304C311.4 142.919 322.7 148.745 336.9 148.745H338.8C363.5 148.745 383.6 128.454 383.6 103.642V11.2254C383.6 6.80551 380 3.18921 375.6 3.18921C371 3.39011 367.3 7.10687 367.3 11.7277ZM311.9 93.9985C312.3 77.926 317.5 59.8445 338.8 59.8445C361.1 59.8445 365.8 79.5333 365.8 96.108C365.8 112.683 361.1 132.371 338.8 132.371C317 132.371 312.1 113.587 311.8 97.3134C311.8 96.9116 311.8 96.6102 311.8 96.2084L311.9 93.9985ZM241.8 95.9071C241.8 119.815 233 132.371 216.3 132.371C200.6 132.371 190.8 118.408 190.8 95.9071C190.8 73.4057 200.6 59.4427 216.3 59.4427C233 59.4427 241.8 71.9993 241.8 95.9071ZM78.5 85.46C78.8 75.8165 84.9 60.0454 106 60.0454C114.5 60.0454 121.2 62.155 125.8 66.2735C132.8 72.602 133.6 82.0446 133.6 85.8618C133.6 85.8618 133.6 85.8618 133.5 85.8618H78.9L78.5 85.46Z" fill="white"/>
<path d="M272.8 159.494C270.8 157.786 268.2 157.183 265.7 157.786C264.3 158.087 263 158.891 261.9 159.996C251.7 169.84 238.8 175.968 224.8 177.776C222.9 177.977 220.9 178.178 219 178.278C218.1 178.278 217.2 178.379 216.2 178.379C199.9 178.379 184.3 172.352 172 161.302C170.5 159.895 168.8 159.192 167 158.991C164.1 158.79 161.4 160.096 159.8 162.407C157.4 165.822 157.9 170.443 160.9 173.256C176.2 187.219 195.8 194.753 216.2 194.753C217.3 194.753 218.5 194.753 219.6 194.652C222 194.552 224.4 194.351 226.8 194.049C244.4 191.739 260.4 184.004 273.3 171.648C274.9 170.041 275.8 167.831 275.8 165.521C275.7 163.21 274.6 161 272.8 159.494Z" fill="#F1AF02"/>
<path d="M289.2 42.2654C273.8 15.0427 245 -1.1302 214 0.175686C212.7 0.276139 211.5 0.276136 210.2 0.376588C183.6 2.687 159.6 17.9558 146 41.2608C144.1 44.5758 144.7 48.5939 147.4 51.2057L147.6 51.4066C149.2 52.9134 151.2 53.717 153.4 53.6165C156.2 53.5161 158.7 52.0093 160.1 49.5984C171 30.9142 190.2 18.5585 211.6 16.7504C212.6 16.6499 213.6 16.5495 214.6 16.5495C239.6 15.545 262.8 28.5033 275.1 50.6029C276.5 53.1143 279.2 54.7215 282.1 54.7215C282.2 54.7215 282.3 54.7215 282.4 54.7215C285.7 54.6211 288.5 52.5115 289.6 49.2971L289.7 48.9957C290.5 46.6853 290.3 44.2744 289.2 42.2654Z" fill="#F1AF02"/>
</svg>
